PathFileType	4	(X/Y/Z)	C:\Users\Basilio\Documents\Thesis Gigler\squatting_fais\c3dfiles\041\SLS_pre_front2\markers_experimental.trc
DataRate	CameraRate	NumFrames	NumMarkers	Units	OrigDataRate	OrigDataStartFrame	OrigNumFrames
200.000000	200.000000	4	62	mm	200.000000	178	1425
Frame#	Time	FHD			LBHD			RBHD			C7			T10			CLAV			LSHO			LUUPA			LMUPA			LDUPA			LLEP			LMEP			LRAD			LUL			LRFIN			RSHO			RUPA1			RMUPA			RDUPA			RLEP			RMEP			RRAD			RUL			RUFIN			LASI			RASI			USACR			LSACR			RSACR			LTHI1			LTHI2			LTHI3			LTHI4			LLFC			LMFC			LTIB1			LTIB2			LTIB3			LTIB4			LLMAL			LMMAL			LHEE			LMT1			LMT2			LMT5			RTHI			RTHI2			RTHI3			RTHI4			RLFC			RMFC			RTIB1			RTIB2			RTIB3			RTIB4			RLMAL			RMMAL			RHEE			RMT1			RMT2			RMT5			*61			
		X1	Y1	Z1	X2	Y2	Z2	X3	Y3	Z3	X4	Y4	Z4	X5	Y5	Z5	X6	Y6	Z6	X7	Y7	Z7	X8	Y8	Z8	X9	Y9	Z9	X10	Y10	Z10	X11	Y11	Z11	X12	Y12	Z12	X13	Y13	Z13	X14	Y14	Z14	X15	Y15	Z15	X16	Y16	Z16	X17	Y17	Z17	X18	Y18	Z18	X19	Y19	Z19	X20	Y20	Z20	X21	Y21	Z21	X22	Y22	Z22	X23	Y23	Z23	X24	Y24	Z24	X25	Y25	Z25	X26	Y26	Z26	X27	Y27	Z27	X28	Y28	Z28	X29	Y29	Z29	X30	Y30	Z30	X31	Y31	Z31	X32	Y32	Z32	X33	Y33	Z33	X34	Y34	Z34	X35	Y35	Z35	X36	Y36	Z36	X37	Y37	Z37	X38	Y38	Z38	X39	Y39	Z39	X40	Y40	Z40	X41	Y41	Z41	X42	Y42	Z42	X43	Y43	Z43	X44	Y44	Z44	X45	Y45	Z45	X46	Y46	Z46	X47	Y47	Z47	X48	Y48	Z48	X49	Y49	Z49	X50	Y50	Z50	X51	Y51	Z51	X52	Y52	Z52	X53	Y53	Z53	X54	Y54	Z54	X55	Y55	Z55	X56	Y56	Z56	X57	Y57	Z57	X58	Y58	Z58	X59	Y59	Z59	X60	Y60	Z60	X61	Y61	Z61	X62	Y62	Z62	

179	0.89	-275.7152404785157	1784.014526367188	-1022.370666503906	-450.3446655273439	1709.435546875	-1094.780517578125	-427.037567138672	1710.74267578125	-943.5202636718752	-474.1031494140626	1549.84912109375	-1030.712524414063	-451.0487060546876	1232.0751953125	-1020.341003417969	-310.7227478027344	1511.3818359375	-1039.309692382813	-414.4569091796876	1548.882934570313	-1187.849487304688	-321.3406677246094	1478.213134765625	-1320.396728515625	-274.2713317871094	1492.72265625	-1313.128540039063	-270.4996032714844	1457.822875976563	-1363.924194335938	-228.7157592773438	1444.516723632813	-1385.23193359375	-200.4568634033204	1377.226318359375	-1341.244750976563	45.52240753173829	1408.072143554688	-1426.541259765625	15.08585166931153	1405.643310546875	-1492.847534179688	107.7043685913086	1441.117553710938	-1453.047119140625	-389.398406982422	1558.084106445313	-883.7900390625002	-278.0734558105469	1453.856689453125	-747.9678955078126	-245.5342407226563	1489.279907226563	-761.2855224609376	-211.4909820556641	1456.797729492188	-725.3898925781251	-167.2860260009766	1448.749633789063	-713.7644653320314	-157.3070831298828	1380.110473632813	-765.1500854492189	99.28448486328128	1414.10693359375	-735.1961059570314	81.53968048095705	1389.213256835938	-665.4341430664064	175.2712554931641	1424.285400390625	-716.1609497070314	-263.4737548828126	1062.680419921875	-1136.686645507813	-262.7654724121094	1060.18408203125	-907.330505371094	-446.4161376953126	1121.082275390625	-1021.7763671875	-459.8630676269532	1093.801391601563	-1048.598022460938	-459.6880798339845	1094.124877929688	-994.2302856445315	-357.0606384277344	842.8626708984377	-1194.231079101563	-316.4125366210938	769.636657714844	-1181.729370117188	-270.0067749023438	777.5594482421877	-1170.990478515625	-340.6802978515626	715.2535400390626	-1171.401611328125	-314.8232116699219	537.5584106445314	-1141.988525390625	-315.4701232910157	527.0827026367189	-1022.10546875	-299.0972900390626	347.9938964843751	-1073.760498046875	-346.1102600097657	303.6461181640626	-1136.151245117188	-309.2998962402344	299.3115539550782	-1108.031372070313	-319.4503479003907	224.5139160156251	-1071.201293945313	-383.2486877441407	133.3949890136719	-1106.7138671875	-346.8259582519532	139.522705078125	-1025.55322265625	-449.6534118652345	118.5789260864258	-1063.645263671875	-242.7777557373047	63.88090133666994	-1038.877075195313	-236.8339080810547	58.27141189575197	-1084.72802734375	-285.3316040039063	44.55782318115235	-1137.076904296875	-362.3722229003907	798.5019531250002	-821.5274047851565	-320.6227416992188	747.6723632812501	-813.4680175781252	-287.8861083984376	751.3662719726564	-817.9692993164065	-341.7916564941407	665.8059692382814	-822.4920043945315	-330.9094848632813	542.2479248046876	-810.4952392578127	-312.7196350097657	511.5739135742189	-925.6842041015627	-301.5842895507813	373.8431701660157	-802.3418579101565	-386.464324951172	303.3729858398438	-778.0133056640627	-340.6304016113282	298.4082946777344	-779.101989746094	-320.7723693847657	246.3790893554688	-803.235534667969	-382.7981262207032	134.6734771728516	-776.5418701171877	-354.8114318847657	144.4062652587891	-856.2730712890627	-445.0087890625001	113.3047637939453	-822.403259277344	-238.5917358398438	56.80160140991212	-841.9614868164065	-232.0013427734376	57.88536834716798	-790.001647949219	-277.1785583496094	47.51103210449219	-740.0942993164064	-4217.389648437501	853.2866821289065	-3944.752441406251	
180	0.895	-275.6767272949219	1784.126831054688	-1022.652709960938	-450.3714599609376	1709.360961914063	-1094.982299804688	-427.0031738281251	1710.765747070313	-943.417907714844	-474.0025329589845	1549.759765625	-1030.857177734375	-450.8212890625001	1231.97265625	-1020.628967285156	-310.3993835449219	1511.566040039063	-1039.541625976563	-414.4431152343751	1548.967651367188	-1187.915893554688	-321.2902832031251	1479.222778320313	-1320.5224609375	-274.1692504882813	1493.539184570313	-1313.172119140625	-270.3298645019532	1459.21728515625	-1364.179931640625	-228.3807983398438	1446.085693359375	-1385.506225585938	-200.3026733398438	1378.662353515625	-1341.759033203125	45.85961914062501	1411.083984375	-1426.665649414063	15.76096153259278	1408.5341796875	-1493.151733398438	108.3152618408203	1444.411376953125	-1453.408569335938	-389.5046691894532	1558.287719726563	-884.3516845703127	-277.5946044921876	1455.388549804688	-748.1425170898439	-245.0115051269532	1490.921875	-761.8474731445314	-210.995346069336	1458.58203125	-725.7294921875001	-166.5741882324219	1451.130859375	-714.3801269531251	-156.1619415283203	1382.507934570313	-765.8079223632814	100.4613876342774	1417.708374023438	-736.0941772460939	82.10051727294923	1392.832641601563	-665.4459228515626	176.3201751708985	1428.205200195313	-717.1102294921876	-263.2799377441407	1062.595703125	-1137.136108398438	-262.5580444335938	1060.103759765625	-907.7053222656252	-446.1989135742189	1121.033935546875	-1022.0693359375	-459.612518310547	1093.727294921875	-1048.905883789063	-459.5049743652345	1094.07470703125	-994.4991455078127	-356.8187866210938	842.711364746094	-1194.479736328125	-316.0087280273438	769.5171508789065	-1181.927978515625	-269.6171264648438	777.4920043945315	-1171.349853515625	-340.1787109375001	715.0721435546876	-1171.724609375	-314.2563476562501	537.4640502929689	-1142.13671875	-314.6927185058594	527.0267333984376	-1022.339965820313	-298.6474914550782	347.9695129394532	-1073.90478515625	-345.8002624511719	303.5308532714844	-1136.140380859375	-308.9448852539063	298.9801940917969	-1108.051879882813	-319.2181701660157	224.4440307617188	-1071.296020507813	-383.2668762207032	133.4493713378907	-1106.711669921875	-346.8279724121094	139.5387115478516	-1025.530151367188	-449.6488647460939	118.5956115722657	-1063.607299804688	-242.7283935546876	63.86188888549806	-1038.873413085938	-236.786361694336	58.68381881713869	-1084.479614257813	-285.3912963867188	44.59296798706055	-1137.057739257813	-362.2047424316407	798.566833496094	-821.658630371094	-320.4550476074219	747.6985473632814	-813.6923828125002	-287.7795410156251	751.3933105468751	-818.150573730469	-341.5842590332032	665.9172973632814	-822.7752685546877	-330.9533996582032	542.2915039062501	-810.679870605469	-312.8051757812501	511.5280151367189	-925.8613891601565	-301.6248474121094	373.9517822265626	-802.4445800781252	-386.483612060547	303.4757385253907	-778.110778808594	-340.6080627441407	298.4878845214844	-779.2043457031252	-320.7041015625001	246.4073638916016	-803.348815917969	-382.8174743652344	134.7194213867188	-776.6049804687502	-354.8461608886719	144.3991241455078	-856.2896728515627	-445.0577697753907	113.3672637939453	-822.4027099609377	-238.5770416259766	56.7782554626465	-841.9948730468752	-231.9761657714844	57.80949020385744	-790.0141601562502	-277.1762390136719	47.50786972045899	-740.0927124023439	-4217.068359375001	853.2387695312502	-3944.745605468751	
181	0.9	-275.6062622070313	1784.075317382813	-1022.99267578125	-450.191619873047	1709.29736328125	-1095.194091796875	-426.8345031738282	1710.674926757813	-943.7326660156252	-473.8831787109376	1549.655883789063	-1031.0341796875	-450.6200561523439	1231.890625	-1020.912536621094	-310.0502319335938	1511.720336914063	-1039.860961914063	-414.561981201172	1549.081176757813	-1187.970825195313	-321.2510375976563	1480.218383789063	-1320.712646484375	-274.3074340820313	1494.761962890625	-1313.15673828125	-270.1859436035157	1460.452270507813	-1364.4033203125	-228.174057006836	1447.618286132813	-1385.755615234375	-199.454818725586	1380.08642578125	-1342.30029296875	46.53434371948243	1413.935302734375	-1427.136596679688	16.22138786315918	1411.455444335938	-1493.410522460938	108.6671524047852	1447.579956054688	-1453.633544921875	-389.345916748047	1558.332763671875	-884.704284667969	-276.8989868164063	1456.68994140625	-748.5613403320314	-244.5802154541016	1492.433715820313	-762.5268554687501	-210.2527008056641	1460.52099609375	-726.3641967773439	-166.2933502197266	1453.043701171875	-714.5400390625001	-155.4505767822266	1384.347534179688	-765.1781616210939	101.1514358520508	1421.118286132813	-736.5858154296876	83.59202575683595	1396.762817382813	-666.4259033203126	176.9853668212891	1432.004638671875	-717.8818359375001	-263.2335510253907	1062.486938476563	-1137.51708984375	-261.9129638671876	1060.25146484375	-908.1737060546877	-445.9834594726564	1120.953247070313	-1022.450378417969	-459.404998779297	1093.616943359375	-1049.160034179688	-459.2850952148439	1094.021728515625	-994.702087402344	-356.4957275390626	842.602478027344	-1194.749877929688	-315.7474670410157	769.398620605469	-1182.119262695313	-269.5270080566407	777.4342041015627	-1171.380981445313	-339.7171020507813	714.8709716796876	-1171.93359375	-313.7850646972657	537.3612060546876	-1142.31982421875	-314.1275939941407	526.9907226562501	-1022.4130859375	-298.3944091796876	347.8943481445313	-1073.939331054688	-345.5598144531251	303.5156555175782	-1136.1103515625	-308.7373352050782	298.8696289062501	-1108.076293945313	-318.7608642578126	224.5719909667969	-1071.456787109375	-383.2322998046876	133.4541931152344	-1106.690795898438	-346.7926635742188	139.5440063476563	-1025.496459960938	-449.629852294922	118.6143798828125	-1063.5859375	-242.7730712890626	63.83306884765626	-1038.8759765625	-236.7396240234376	58.31307601928712	-1084.764282226563	-285.2853698730469	44.60233688354493	-1137.080078125	-362.0172119140626	798.6675415039065	-821.892517089844	-320.2620239257813	747.7203979492189	-813.8395996093752	-287.4930114746094	751.4537963867189	-818.4665527343752	-341.5731811523438	665.8650512695314	-823.077331542969	-331.0065917968751	542.3709716796876	-810.818298339844	-312.8943481445313	511.5198669433595	-926.0779418945315	-301.6103820800782	374.0192565917969	-802.5195922851565	-386.5182495117189	303.5200500488282	-778.241394042969	-340.6146850585938	298.5376281738282	-779.2861328125002	-320.6508178710938	246.3964080810547	-803.445983886719	-382.8067932128907	134.7563781738282	-776.6383056640627	-354.8169860839844	144.4190826416016	-856.3244628906252	-444.9608154296876	113.3460388183594	-822.4291992187502	-238.5677795410157	56.77241897583009	-841.9507446289065	-232.0329132080079	57.75957489013673	-789.970153808594	-277.1933593750001	47.51669692993165	-740.0875244140626	-4216.683105468751	853.1128540039065	-3944.760498046876	
182	0.905	-275.5765075683594	1783.980712890625	-1023.273498535156	-450.3200988769532	1709.200927734375	-1095.459716796875	-426.7622680664064	1710.640380859375	-943.9804687500002	-473.8094177246095	1549.571044921875	-1031.287841796875	-450.4606323242189	1231.8232421875	-1021.201538085938	-309.0968933105469	1511.913330078125	-1040.40283203125	-414.5738220214845	1549.173950195313	-1188.05712890625	-321.2934265136719	1481.200805664063	-1320.836791992188	-274.3330383300782	1495.920776367188	-1313.387573242188	-269.9487915039063	1461.715209960938	-1364.669555664063	-227.9665222167969	1449.18505859375	-1385.992431640625	-198.7166595458985	1381.527465820313	-1342.793090820313	46.98913574218751	1416.746948242188	-1427.432861328125	16.71887588500977	1414.26025390625	-1493.678344726563	108.7888107299805	1450.820068359375	-1453.79541015625	-389.3689575195314	1558.416137695313	-885.0979614257815	-276.3274536132813	1458.069091796875	-748.9212646484376	-244.1251525878907	1493.84716796875	-763.2378540039064	-209.5609588623047	1462.3759765625	-727.0538940429689	-165.5076141357422	1455.176513671875	-715.2772827148439	-154.6537017822266	1386.362548828125	-765.7868652343751	101.8734359741211	1424.88671875	-737.3204956054689	84.59490203857423	1400.360107421875	-667.0305786132814	177.6650848388672	1435.939208984375	-718.8790893554689	-263.0844421386719	1062.42529296875	-1137.872314453125	-261.8232421875001	1060.19482421875	-908.4750976562502	-445.772430419922	1120.859130859375	-1022.74609375	-459.2103576660157	1093.50048828125	-1049.469360351563	-459.0113525390626	1093.963745117188	-994.8922119140627	-356.2881164550782	842.455749511719	-1195.020874023438	-315.5202636718751	769.3360595703127	-1182.34228515625	-269.1978454589844	777.312927246094	-1171.638671875	-339.3989562988282	714.7044677734376	-1172.170532226563	-313.1728820800782	537.1528320312501	-1142.37744140625	-313.6651000976563	526.9758300781251	-1022.523010253906	-298.0968322753907	347.8609619140626	-1074.009643554688	-345.4188232421876	303.8794555664063	-1136.120361328125	-308.4384460449219	298.9591369628907	-1108.124267578125	-318.4947814941407	224.7353515625001	-1071.520263671875	-383.1709289550782	133.5086212158203	-1106.702880859375	-346.7465209960938	139.5888977050782	-1025.494873046875	-449.6464233398439	118.7215576171875	-1063.57177734375	-242.808822631836	63.82297134399415	-1038.867797851563	-236.8936309814454	58.21654510498048	-1084.754150390625	-285.3787231445313	44.65887069702149	-1137.125366210938	-361.8467407226563	798.7784423828127	-822.0200805664065	-320.1605834960938	747.7138671875001	-814.0437011718752	-287.3694152832032	751.4704589843751	-818.680847167969	-341.4563293457032	665.9636840820314	-823.280456542969	-330.9734802246094	542.4642944335939	-810.9268188476565	-312.3302307128907	511.2484741210939	-926.0752563476565	-301.6492919921876	374.0481567382813	-802.659362792969	-386.551239013672	303.5393371582032	-778.3323974609377	-340.5856628417969	298.5574035644532	-779.3612060546877	-320.6195373535157	246.4794006347657	-803.502868652344	-382.8124694824219	134.7977752685547	-776.692565917969	-354.7884826660157	144.418701171875	-856.3633422851565	-445.0035095214845	113.4259414672852	-822.4622192382815	-238.5467376708985	56.75410461425783	-841.9927978515627	-232.0341491699219	57.77258300781251	-789.9383544921877	-277.1900634765626	47.50899505615235	-740.0480346679689	-4216.832519531251	853.1382446289065	-3944.742431640626	
